<svg xmlns="http://www.w3.org/2000/svg" width="109" height="99" viewBox="0 0 109 99" fill="none">
<g filter="url(#filter0_b_1451_273)">
<path d="M0.169189 8.18751C0.169189 3.76923 3.75091 0.1875 8.16919 0.1875L100.949 0.1875C105.367 0.1875 108.949 3.76922 108.949 8.1875V90.3111C108.949 94.7294 105.367 98.3111 100.949 98.3111H8.16919C3.75092 98.3111 0.169189 94.7294 0.169189 90.3111L0.169189 8.18751Z" fill="#6093DF"/>
<path d="M8.16919 0.6875L100.949 0.6875C105.091 0.6875 108.449 4.04536 108.449 8.1875V90.3111C108.449 94.4533 105.091 97.8111 100.949 97.8111H8.16919C4.02706 97.8111 0.669189 94.4533 0.669189 90.3111L0.669189 8.1875C0.669189 4.04537 4.02705 0.6875 8.16919 0.6875Z" stroke="black"/>
</g>
<rect x="19.4789" y="63.1406" width="70.6479" height="23.2676" rx="8" fill="#EFEFEF"/>
<rect x="19.4789" y="63.1406" width="70.6479" height="23.2676" rx="8"/>
<rect x="14.662" y="70.8965" width="27.2958" height="15.5117" rx="7.75587" fill="#EFEFEF"/>
<rect x="14.662" y="70.8965" width="27.2958" height="15.5117" rx="7.75587"/>
<rect x="67.6479" y="70.8965" width="27.2958" height="15.5117" rx="7.75587" fill="#EFEFEF"/>
<rect x="67.6479" y="70.8965" width="27.2958" height="15.5117" rx="7.75587"/>
<path d="M33.9296 74.7744C33.9296 81.1996 29.6164 86.4082 24.2958 86.4082C18.9752 86.4082 14.662 81.1996 14.662 74.7744C14.662 68.3493 18.9752 63.1406 24.2958 63.1406C29.6164 63.1406 33.9296 68.3493 33.9296 74.7744Z" fill="#EFEFEF"/>
<path d="M33.9296 74.7744C33.9296 81.1996 29.6164 86.4082 24.2958 86.4082C18.9752 86.4082 14.662 81.1996 14.662 74.7744C14.662 68.3493 18.9752 63.1406 24.2958 63.1406C29.6164 63.1406 33.9296 68.3493 33.9296 74.7744Z" />
<path d="M94.9436 74.7744C94.9436 81.1996 90.6304 86.4082 85.3098 86.4082C79.9892 86.4082 75.676 81.1996 75.676 74.7744C75.676 68.3493 79.9892 63.1406 85.3098 63.1406C90.6304 63.1406 94.9436 68.3493 94.9436 74.7744Z" fill="#EFEFEF"/>
<path d="M94.9436 74.7744C94.9436 81.1996 90.6304 86.4082 85.3098 86.4082C79.9892 86.4082 75.676 81.1996 75.676 74.7744C75.676 68.3493 79.9892 63.1406 85.3098 63.1406C90.6304 63.1406 94.9436 68.3493 94.9436 74.7744Z" />
<ellipse cx="54" cy="32.5" rx="20" ry="20.5" fill="#EFEFEF"/>
<defs>
<filter id="filter0_b_1451_273" x="-3.83081" y="-3.8125" width="116.78" height="106.124" filterUnits="userSpaceOnUse" color-interpolation-filters="sRGB">
<feFlood flood-opacity="0" result="BackgroundImageFix"/>
<feGaussianBlur in="BackgroundImageFix" stdDeviation="2"/>
<feComposite in2="SourceAlpha" operator="in" result="effect1_backgroundBlur_1451_273"/>
<feBlend mode="normal" in="SourceGraphic" in2="effect1_backgroundBlur_1451_273" result="shape"/>
</filter>
</defs>
</svg>